<svg xmlns="http://www.w3.org/2000/svg" viewBox="0 0 100 100">
  <g fill="none" fill-rule="evenodd">
    <path className="base" fill="#000" fill-rule="nonzero" d="M50,100 C22.3790323,100 1.14603667e-14,77.6209677 0,50 C0,22.3790323 22.3790323,0 50,0 C77.6209677,-1.14603667e-14 100,22.3790323 100,50 C100,77.6209677 77.6209677,100 50,100 Z"/>
    <path fill="#FFF" fill-rule="nonzero" d="M53.3921296,26.2061914 C55.0222219,24.5979362 57.6581157,24.5979362 59.2708665,26.2061914 L60.7774308,27.6897358 C62.4075231,29.297991 62.4075231,31.898574 60.7774308,33.4897201 L45.1703524,48.8877235 C44.5655081,49.4844652 44.5589397,50.458543 45.1556813,51.0633872 C45.1605386,51.0683105 45.1654291,51.073201 45.1703524,51.0780583 L60.7774308,66.4760617 C62.4075231,68.0843169 62.4075231,70.6848999 60.7774308,72.276046 L59.2882079,73.7938086 C57.6581157,75.4020638 55.0222219,75.4020638 53.409471,73.7938086 L32.2377515,52.9085467 C31.4125717,52.1029909 31.0007146,51.0484713 31.0000009,49.9943938 C30.9992898,48.9440537 31.4068115,47.8941528 32.2204101,47.0914533 L53.3921296,26.2061914 Z"/>
  </g>
</svg>
